<svg id="Layer_1" data-name="Layer 1" xmlns="http://www.w3.org/2000/svg" viewBox="0 0 960 960"><title>logo</title><path d="M781.6,1080.8H419.2a23.45,23.45,0,0,0-2.74-.48A259.07,259.07,0,0,1,382,1076q-104.08-19.86-176.63-97.16C167.27,938,141.83,890.25,128.49,836c-3.57-14.51-5.66-29.27-7.69-44V408.8c1.81-12.38,3.46-24.77,6.09-37,25.58-119.11,119.24-214.91,237.87-243.29a420.39,420.39,0,0,1,44.84-7.69H791.2c10.81,1.49,21.65,2.75,32.36,5,68.63,14.16,126.84,46.92,174.07,98.64,41.67,45.62,67.78,99.11,78.74,160,2.08,11.55,3.12,23.21,4.43,34.84V781.6c-.17,1.18-.42,2.36-.5,3.54a278.33,278.33,0,0,1-4.42,34.06c-14.2,73.41-49.3,134.94-105.74,184-44.39,38.57-95.78,62.8-153.7,73.18C804.89,1078.43,793.24,1079.54,781.6,1080.8ZM570.39,694.7c-26.13,0-52.26-.1-78.38,0a39.06,39.06,0,0,0-37.73,48.55,38.66,38.66,0,0,0,37.51,29.19c22.53.12,45.06.22,67.59,0,32.22-.3,64.48,1.16,96.68-1.43a110.57,110.57,0,0,0,62.46-24.81c42.23-34.18,51.86-92.78,20.89-137.36-22.3-32.11-54.71-47.21-93.29-48.46-28.5-.92-57-.36-85.57-.44-8.85,0-17.19-1.66-24.57-7-15.51-11.15-15.42-28.73.21-39.79,7.53-5.33,16-6.83,25-6.84q74-.06,148-.21a38.66,38.66,0,0,0,37.23-48.36A37.72,37.72,0,0,0,710,429q-35.4-.27-70.79-.09c-29.3.12-58.61-1.3-87.89,1-26.8,2.08-50.75,10.86-71.4,28.64-40.93,35.23-47.66,94-14.51,135.28,22.44,27.94,52.53,41.7,87.94,43.39,28.36,1.36,56.78.47,85.17.33,8.11,0,16,.77,23.2,4.79,9.67,5.39,16.93,18.23,15.55,27.39a29.5,29.5,0,0,1-28.92,25C622.38,694.76,596.39,694.69,570.39,694.7Z" transform="translate(-120.8 -120.8)"/></svg>